<?xml version="1.0" standalone="no"?>
<!DOCTYPE svg PUBLIC "-//W3C//DTD SVG 20010904//EN"
 "http://www.w3.org/TR/2001/REC-SVG-20010904/DTD/svg10.dtd">
<svg version="1.0" xmlns="http://www.w3.org/2000/svg"
 width="1536.000000pt" height="1024.000000pt" viewBox="0 0 1536.000000 1024.000000"
 preserveAspectRatio="xMidYMid meet">

<g transform="translate(0.000000,1024.000000) scale(0.100000,-0.100000)"
fill="#000000" stroke="none">
<path d="M6291 7104 c-126 -34 -232 -120 -273 -221 -22 -56 -23 -71 -26 -384
l-3 -326 25 -29 24 -29 479 -3 c263 -2 493 0 511 3 18 3 42 15 53 26 18 18 19
37 19 474 l0 456 -25 24 -24 25 -353 -1 c-275 0 -365 -4 -407 -15z"/>
<path d="M7275 7095 l-25 -24 0 -450 0 -450 24 -28 24 -28 424 -3 c232 -2 438
0 456 3 18 3 42 15 53 26 18 18 19 37 19 474 l0 456 -25 24 -24 25 -451 0
-451 0 -24 -25z"/>
<path d="M8424 7095 l-25 -25 3 -405 c3 -372 4 -406 21 -422 16 -17 49 -18
412 -21 l395 -3 25 25 25 25 0 399 0 399 -25 27 -24 26 -391 0 -391 0 -25 -25z"/>
<path d="M6033 5960 c-12 -5 -26 -18 -32 -29 -15 -28 -15 -891 0 -924 6 -14
22 -30 36 -36 16 -8 177 -11 519 -11 l495 0 24 25 25 24 0 454 c0 433 -1 456
-19 478 l-19 24 -504 2 c-278 1 -513 -2 -525 -7z"/>
<path d="M7293 5960 c-12 -5 -26 -18 -32 -29 -15 -28 -15 -891 0 -924 6 -14
22 -30 36 -36 16 -8 165 -11 472 -11 414 0 449 -1 464 -17 25 -29 26 -83 1
-107 -14 -14 -71 -16 -475 -16 l-460 0 -25 -25 -25 -25 3 -454 c3 -422 4 -457
21 -473 17 -17 57 -18 670 -18 645 0 653 0 737 23 289 77 493 276 573 560 20
73 21 98 22 442 0 416 -4 447 -89 625 -125 264 -385 449 -681 484 -109 13
-1180 14 -1212 1z"/>
<path d="M6015 4795 l-25 -24 0 -440 c0 -301 4 -448 11 -464 6 -14 22 -30 36
-36 16 -8 177 -11 519 -11 l495 0 24 25 25 24 0 451 0 451 -25 24 -24 25 -506
0 -506 0 -24 -25z"/>
</g>
</svg>
