<svg xmlns="http://www.w3.org/2000/svg" width="32" height="32" viewBox="0 0 64 64" fill="none">
  <defs>
    <!-- Máscara para recortar el “slot” (espacio negativo) dentro del bloque grande -->
    <mask id="slot-cut">
      <rect width="64" height="64" fill="white"/>
      <!-- Slot horizontal -->
      <rect x="31" y="39" width="20" height="5" rx="2.5" fill="black"/>
    </mask>
  </defs>

  <g fill="#6D5EF7">
    <!-- Bloques superiores (3) -->
    <rect x="7"  y="7"  width="14" height="14" rx="3.2"/>
    <rect x="25" y="7"  width="14" height="14" rx="3.2"/>
    <rect x="43" y="7"  width="14" height="14" rx="3.2"/>

    <!-- Columna izquierda (2 adicionales) -->
    <rect x="7"  y="25" width="14" height="14" rx="3.2"/>
    <rect x="7"  y="43" width="14" height="14" rx="3.2"/>

    <!-- Bloque grande tipo “D” (con esquinas izquierdas suaves y derecha redondeada) -->
    <path
      mask="url(#slot-cut)"
      d="
        M 31 25
        H 41
        A 16 16 0 0 1 57 41
        V 47
        A 16 16 0 0 1 41 63
        H 31
        A 6 6 0 0 1 25 57
        V 31
        A 6 6 0 0 1 31 25
        Z"
    />
  </g>
</svg>
